<?xml version="1.0" standalone="no"?>
<!DOCTYPE svg PUBLIC "-//W3C//DTD SVG 20010904//EN"
 "http://www.w3.org/TR/2001/REC-SVG-20010904/DTD/svg10.dtd">
<svg version="1.0" xmlns="http://www.w3.org/2000/svg"
 width="512.000000pt" height="512.000000pt" viewBox="0 0 512.000000 512.000000"
 preserveAspectRatio="xMidYMid meet">
<metadata>
Created by potrace 1.14, written by Peter Selinger 2001-2017
</metadata>
<g transform="translate(0.000000,512.000000) scale(0.100000,-0.100000)"
fill="#000000" stroke="none">
<path d="M2990 4886 c-624 -57 -1167 -108 -1207 -114 -94 -12 -156 -44 -223
-111 -55 -56 -61 -70 -792 -1676 -406 -891 -744 -1640 -753 -1664 -21 -60 -19
-160 4 -226 23 -66 472 -738 540 -808 75 -77 131 -99 291 -109 74 -4 734 -17
1465 -28 1228 -19 1334 -19 1385 -4 100 29 186 97 230 183 10 21 281 796 602
1722 l582 1684 0 95 c1 83 -2 102 -26 152 -34 73 -107 146 -182 183 -51 25
-73 29 -170 33 l-111 4 -48 47 c-27 25 -53 53 -57 62 -7 12 2 49 26 120 32 94
35 112 31 185 -6 103 -39 176 -115 251 -76 76 -158 114 -260 118 -46 2 -531
-37 -1212 -99z m1284 8 c12 -5 2 -41 -58 -217 -65 -187 -76 -212 -98 -219 -19
-7 -31 -23 -46 -66 -12 -31 -246 -708 -521 -1504 -275 -796 -507 -1460 -516
-1477 -32 -62 -104 -120 -179 -143 -17 -5 -542 -15 -1166 -23 -1114 -15 -1135
-15 -1152 -35 -15 -18 -33 -20 -237 -27 l-221 -6 0 40 c0 22 7 59 15 83 26 74
1468 3234 1493 3272 28 43 98 93 152 109 53 16 2405 229 2467 223 28 -2 58 -7
67 -10z m285 -745 c39 -44 80 -97 91 -118 27 -53 40 -146 29 -205 -11 -62
-986 -3080 -1010 -3127 -23 -45 -90 -106 -143 -129 -22 -10 -68 -21 -101 -24
-93 -9 -2448 -30 -2478 -22 -19 4 -44 34 -94 108 -75 113 -84 151 -45 191 l23
22 1132 5 1132 5 60 24 c44 18 78 42 126 90 55 56 70 79 96 146 16 44 270 763
564 1597 294 835 537 1518 540 1518 3 0 38 -36 78 -81z"/>
<path d="M2752 4110 c-159 -42 -313 -159 -392 -298 -19 -34 -38 -62 -41 -62
-3 0 -12 19 -19 43 -73 245 -320 342 -566 222 -130 -63 -246 -220 -289 -390
-22 -86 -19 -234 5 -331 42 -161 203 -449 370 -659 205 -259 262 -306 367
-306 74 -1 91 6 215 87 241 156 442 319 618 500 187 192 290 348 342 514 27
89 32 263 9 345 -36 128 -128 252 -223 301 -110 56 -261 69 -396 34z m317 -92
c100 -38 187 -144 221 -266 14 -55 14 -206 -1 -268 -18 -77 -92 -223 -160
-315 -80 -110 -325 -352 -464 -461 -127 -98 -340 -246 -402 -277 -107 -54
-166 -12 -384 269 -218 280 -352 548 -365 730 -16 207 99 431 262 511 74 36
180 49 250 30 127 -34 207 -162 221 -354 6 -92 16 -111 54 -105 19 2 28 18 49
79 90 256 252 409 473 449 71 12 179 3 246 -22z"/>
</g>
</svg>
